<svg xmlns="http://www.w3.org/2000/svg" xml:space="preserve" viewBox="0 0 888.385 800"><path d="m809.192 121.72 1.163-20.578L704.437 45.65l-12.631 10.806C499.422-42.869 240.585-17.561 105.39 183.868c152.157-93.014 458.695-156.016 515.385-61.813 17.89-44.732 71.575 4.967 30.466 32.972 4.822 9.626-16.563 50.208-23.5 76.896l28.486 55.783 69.004-80.637c6.829-4.531 17.68.663 17.68.663s2.842-21.685 15.428-25.054 39.82 22.865 39.82 22.865 6.873-26.779 24.027-30.765c19.96-3.415 38.139 23.982 38.139 23.982 2.37-14.248 12.531-25.98 28.06-35.86zM284.699 647.357s-38.094-20.831-39.174-26.116l-57.282 41.707-7.99-9.625s-25.109 50.534-58.072 67.542C89.227 737.874 23.483 719.222 0 740.162c12.14 16.681 86.13 58.307 137.682 59.833 36.25 1.026 161.619-149.097 147.017-152.638"/><path d="M614.738 237.789c-16.146-29.558-32.4-58.162-48.9-85.94H453.31c-16.5 27.778-32.763 56.5-48.9 85.94-62.793 115.016-113.119 226.827-153.945 333.063-1.544 9.135-3.088 18.28-4.75 27.414 5.222 4.032 10.797 7.955 16.736 11.987 18.87 12.822 37.385 23.5 54.957 32.282h23.146c9.853 0 24.927-3.087 19.824-11.514a21476 21476 0 0 0-27.542-38.575c30.865-69.913 68.487-144.693 114.544-221.96 17.444-29.077 35.015-56.973 52.46-83.443 4.513-7.001 14.837-7.001 19.35 0 17.572 26.588 35.252 54.366 52.46 83.443 46.175 77.386 83.797 152.047 114.544 221.96a21476 21476 0 0 1-27.542 38.575c-4.985 8.427 10.089 11.514 19.823 11.514h23.147c17.571-8.663 35.969-19.351 54.957-32.282 5.811-4.032 11.396-7.955 16.735-11.987-1.543-9.135-3.087-18.279-4.749-27.414-40.59-106.236-91.034-218.047-153.827-333.063"/><path d="M635.27 511.382c-3.56.472-7.238.708-11.043.836-22.792 1.307-42.252-1.308-56.736-4.396-4.277-1.661-10.561-4.985-16.5-11.042-2.733-2.733-4.867-5.693-6.529-8.427-5.103-8.545-.826-19.233 9.017-22.674 5.939-2.016 12.459-4.513 18.988-7.837 11.042-5.221 20.295-11.278 28.132-17.208-17.208-33.353-36.559-68.605-54.838-100.296-10.443-18.162-18.398-25.4-28.723-36.323-4.032-4.277-14.247-3.088-18.161 1.19-10.325 11.16-14.72 17.207-25.163 35.133-18.397 31.927-37.866 67.542-55.192 101.014 7.6 5.693 16.5 11.396 27.06 16.381a204 204 0 0 0 18.988 7.837c9.852 3.441 14.12 14.12 9.017 22.674-1.662 2.852-3.796 5.694-6.529 8.427-5.812 5.94-12.223 9.263-16.5 11.042-14.72 3.088-34.061 5.694-56.736 4.396-3.324-.118-6.53-.473-9.735-.709-.236.59-.59 1.308-.826 1.898l-10.679 20.296v26.116c0 10.443 7.6 19.233 17.807 21.13l10.797 1.898 48.9-45.34 4.75 4.75-48.9 50.207v39.41l7.718 10.68h22.557v-35.252h16.617v35.251h24.691v-35.251h16.736v35.251h24.681v-35.251h16.736v35.251h24.69v-35.251h16.736v35.251h28.84l7.72-10.679v-39.41l-48.891-50.235 4.749-4.749 48.9 45.34 10.796-1.898c10.325-1.661 17.808-10.56 17.808-21.13v-26.117l-10.68-20.295c-.471-.463-.707-1.18-1.07-1.889m-98.4 55.31c-5.693-1.425-14.955-7.237-28.84-7.473-13.294-.118-24.808 5.812-31.928 7.474-2.615.59-6.175-6.647-4.749-9.017l23.383-37.513c6.175-10.56 21.603-9.97 26.943.836l19.94 36.913c1.308 2.37-2.37 9.253-4.748 8.78"/></svg>