<svg xmlns="http://www.w3.org/2000/svg" viewBox="0 0 178.844 211.667"><path d="m151.221-1.223-52.1 47.562h45.565v7.942H78.568c3.996-14.908 10.18-20.666 20.445-31.904-19.92 9.9-30.85 20.53-37.214 41.658h82.887v8.473h-47.67c1.61 13.433 2.74 17.826 12.526 27.746-1.614-7.565-3.43-10.566-.423-17.99h35.567v53.389l.254 20.693c15.89-8.532 29.78-18.741 43.205-30.497-8.185 32.828-23.803 58.94-45.746 84.594 35.24-29.796 59.242-59.914 59.542-103.473-17.845 8.807-27.967 16.367-44.184 28.683v-53.39h35.567c3.007 7.425 1.19 10.426-.423 17.99 9.786-9.92 10.916-14.312 12.526-27.745h-47.67v-8.473h82.887c-6.364-21.128-17.295-31.758-37.214-41.658 10.266 11.238 16.449 16.996 20.445 31.904h-66.118v-7.942h45.564zm0 13.252 28.237 25.778h-56.473z" transform="translate(-61.8 1.223)" fill="currentColor" fill-opacity="1" stroke="none" stroke-width=".5082891px" stroke-linecap="butt" stroke-linejoin="miter" stroke-opacity="1"/></svg>