<svg xmlns="http://www.w3.org/2000/svg" xml:space="preserve" viewBox="0 0 435.335 800"><switch transform="translate(-202.732 -21.03)scale(.84121)"><g><path d="M758.51 652.28c0-39.2-47.05-115.37-123.22-115.37S505.35 586.2 505.35 586.2c-2.96-13.63-5.05-32.52-6.15-54.3 19.15 1.27 36.78 4.58 53.2 9.49V480.9c-18.04 5.81-36.08 8.91-54.11 9.32.02-4.63.07-9.31.17-14.03 15.82-2.43 32.31-8 49.11-15.24 16.49 23.66 30.51 48.92 41.8 75.95 15.24-2.56 35.71-9.12 64.97-22.4.44-5.74-5.37-9.26-15.68-11.2-17.01-16.77-32.19-38.9-46.25-64.27 45.6-24.02 91.25-50.5 130.26-51.11V342c-85.13-1.12-127.7-76.17-240.83-76.17S326.13 340.88 241 342v45.93c39.01.61 84.66 27.09 130.26 51.11-14.06 25.37-29.23 47.49-46.25 64.27-10.31 1.94-16.12 5.46-15.68 11.2 29.26 13.28 49.73 19.84 64.97 22.4 11.29-27.03 25.31-52.29 41.8-75.95 14.78 6.36 29.31 11.43 43.36 14.22.02 5.03.03 9.98.04 14.82-16.08-.89-32.15-3.92-48.23-9.1v60.49c14.96-4.48 30.92-7.63 48.13-9.11-.52 78.46-2.9 127.68-6.69 154.73 151.22-135.54 224.81-100.52 228.51-30.24 2.24 132.18-306.92 133.3-306.92 256.51 0 28 20.16 62.73 56.01 62.73 32.48 0 51.53-17.92 51.53-17.92-14.56 0-64.97 6.72-64.97-36.96 2.23-105.31 341.64-88.51 341.64-268.85m-334.65-339.5c2.85-.97 5.74-1.89 8.66-2.78-7.72 8.01-12.29 17.91-12.29 28.64 0 26.6 28.08 48.17 62.73 48.17s62.73-21.56 62.73-48.17c0-10.3-4.22-19.83-11.39-27.66 2.93.93 5.83 1.9 8.7 2.9 7.36 8.73 11.65 19.15 11.65 30.36 0 30.7-32.1 55.58-71.69 55.58s-71.69-24.88-71.69-55.58c-.01-11.68 4.65-22.51 12.59-31.46m-120.13 49.38c19.67-1.23 47.44-17.97 81.63-33.76a61 61 0 0 0-2.1 15.84c0 42.69 44.63 77.29 99.69 77.29s99.69-34.6 99.69-77.29c0-5.01-.62-9.91-1.8-14.66 33.03 15.43 59.91 31.38 79.09 32.58-36.96-1.12-80.65 64.97-178.1 68.33-97.45-3.36-141.14-69.45-178.1-68.33M482.26 249.03 528.18 25h-91.85zM413.8 260.46 388.43 72.52l-35.95 12.57-35.95 12.57zM344.33 286.13l-53.26-126.07-24.82 17.92-24.82 17.91zM647.98 97.66l-35.95-12.57-35.95-12.57-25.37 187.94zM620.18 286.13l102.9-90.24-24.82-17.91-24.82-17.92z"/></g></switch></svg>