<svg xmlns="http://www.w3.org/2000/svg" xml:space="preserve" viewBox="0 0 750.482 800"><path d="M610.829 689.055c-7.599-11.278-3.143-28.835 10.61-40.262 13.86-11.517 32.118-12.606 41.755-2.821 14.298-16.41 26.31-35.27 36.417-56.482-2.31.058-4.604-.256-6.832-1.006-13.736-4.62-19.734-23.63-13.398-42.457s22.606-30.336 36.343-25.716c2.763.932 5.214 2.45 7.31 4.43 6.567-24.198 11.731-50.442 15.823-78.641-6.913 4.141-14.652 5.692-22.143 3.795-18.02-4.58-27.787-27.367-21.814-50.897s25.427-38.892 43.454-34.32c3.26.824 6.237 2.251 8.91 4.166 1.263-15.924 2.319-32.325 3.218-49.205-.718-21.22-2.846-41.318-6.237-60.31-4.282 7.5-10.758 13.258-18.943 15.989-20.32 6.79-43.454-7.648-51.672-32.242-8.209-24.595 1.61-50.03 21.93-56.82 9.595-3.201 19.809-1.675 28.785 3.415-27.861-68.502-62.595-105.95-120.983-136.955 22.557 14.834 19.182 28.736 8.721 46.862-10.981 19.017-40.121 22.738-65.095 8.316S510.67 66.37 521.643 47.362c9.364-16.22 26.995-22.953 48.924-15.156C513.104 5.367 451.747-3.436 385.017 1.16c14.587 5.742 25.14 16.005 28.01 29.305 5.57 25.757-19.726 53.074-56.49 61.027-36.763 7.946-71.084-6.484-76.653-32.242-3.383-15.65 4.637-31.863 19.693-43.974C164.38 50.917 42.77 148.23 8.687 295.746c31.5 5.428 45.617 13.035 45.617 13.035 17.202 17.722 49.881 34.668 87.874 49.8-6.732-8.647-10.759-19.521-10.759-31.336 0-28.191 22.854-51.044 51.045-51.044s51.045 22.853 51.045 51.044c0 24.388-17.103 44.767-39.973 49.824 26.541 8.712 53.47 16.46 77.982 22.944-38.01-78.196 35.84-128.16 124.902-123.812.915.181 1.831.387 2.747.585L388.821 315.3l-65.17 10.857v111.866l38.01-76.026 69.509 9.776 41.73-66.761c26.22 15.246 48.454 35.204 61.754 58.726l-58.957 54.74-56.473-22.803-77.108 76.026 84.714-23.893 53.215 23.893 75.037-38.504c3.481 22.936 3.564 44.04.503 63.107-7.227 14.132-16.542 26.145-28.843 35.13l-71.68 5.428-23.892-43.446-80.804 14.694-2.821.511 60.821 18.465 8.688 52.133 72.454 12.838c-44.708 24.57-109.473 29.429-188.668 9.966 4.348 41.268 7.598 58.652 16.294 87.973-64.732-31.219-119.027-83.749-162.91-156.393-19.34 30.65-29.388 62.802-33.67 90.143L0 438.022c31.434 137.03 92.354 259.564 183.545 347.545-3.63-36.045-8.688-72.256 1.089-94.49 78.691 76.843 169.841 124.505 289.982 104.259l-44.329-70.491c77.33 2.21 135.974-10.107 180.542-35.79M182.464 189.317c-19.256 3.003-39.37 10.585-59.732 22.803 5.346-40.822 32.646-67.454 72.768-85.803 4.323 12.648-.669 34.272-13.036 63" stroke-width=".82503206"/></svg>