<svg xmlns="http://www.w3.org/2000/svg" xml:space="preserve" viewBox="0 0 500 500"><path d="M154.7 158.1c-.1-1.9-.2-3.7-.2-5.6 0-52.8 42.9-95.6 95.8-95.6s95.8 42.8 95.8 95.6c0 1.9-.1 3.8-.2 5.6h16.9c.1-1.9.1-3.7.1-5.6C363 90.3 312.6 40 250.3 40S137.6 90.3 137.6 152.4c0 1.9 0 3.8.1 5.6h17z"/><path d="m383 264.7-91.3-91.1c1.9-3.7 3.4-7.7 4.3-11.9h23.6v-18.1H282c.9 2.9 1.3 5.9 1.3 9 0 17.5-14.2 31.6-31.8 31.6s-31.8-14.2-31.8-31.6c0-3.1.5-6.2 1.3-9h-37.6v18.1H207c.7 3.5 1.9 6.8 3.3 10l-93.3 93 15.9 15.9 91.7-91.5c4.6 3.3 9.8 5.9 15.4 7.3V460h22.7V196.4c5-1.3 9.6-3.4 13.7-6.1l90.5 90.3z"/></svg>